<?xml version="1.0" encoding="utf-8"?>
<!-- Generator: Adobe Illustrator 18.1.0, SVG Export Plug-In . SVG Version: 6.00 Build 0)  -->
<!DOCTYPE svg PUBLIC "-//W3C//DTD SVG 1.1//EN" "http://www.w3.org/Graphics/SVG/1.1/DTD/svg11.dtd">
<svg version="1.1" id="Layer_1" xmlns="http://www.w3.org/2000/svg" xmlns:xlink="http://www.w3.org/1999/xlink" x="0px" y="0px"
	 viewBox="0 0 255.1 255.1" enable-background="new 0 0 255.1 255.1" xml:space="preserve">
<path fill="#E51B33" d="M61.8,138.9c-0.2,4.1-0.5,8.2-0.9,12.3l5.5-0.3c1.3-0.1,2.5,1,2.6,2.3v0.1c0,1.3-1,2.4-2.3,2.4l-6.4,0.3
	c-0.6,4.1-1.3,8.1-2.1,12.2l5.5,0.3c1.3,0,2.4,1.2,2.3,2.5c-0.1,1.3-1.1,2.3-2.4,2.3h-0.1l-6.4-0.3c-1,4-2.1,8-3.3,11.9l5.4,0.8
	c1.3,0.2,2.2,1.4,2,2.7c-0.2,1.2-1.2,2.1-2.4,2.1c-0.1,0-0.2,0-0.4,0l-6.3-0.9c-1.3,3.9-2.8,7.7-4.5,11.5l5.3,1.3
	c1.3,0.3,2.1,1.6,1.8,2.9c-0.3,1.1-1.3,1.8-2.3,1.8c-0.2,0-0.4,0-0.6-0.1l-6.1-1.5c-1.7,3.7-3.6,7.4-5.6,11l5.1,1.8
	c1.3,0.5,1.9,1.8,1.5,3.1c-0.4,1-1.3,1.6-2.3,1.6c-0.3,0-0.5,0-0.8-0.1l-5.9-2.1c-2.1,3.5-4.3,7-6.6,10.4l4.9,2.3
	c1.2,0.6,1.7,2,1.2,3.2c-0.4,0.9-1.3,1.4-2.2,1.4c-0.4,0-0.7-0.1-1-0.2l-5.7-2.7c-1.3,1.8-2.7,3.6-4.1,5.4c-1.6-1.4-3.2-2.9-4.8-4.4
	c1.4-1.8,2.8-3.6,4.1-5.4l-3.3-7.5c-0.5-1.2,0-2.7,1.2-3.2c1.2-0.5,2.6,0,3.2,1.2l2.1,4.8c2.1-3.1,4-6.2,5.8-9.3l-4.1-7.1
	c-0.7-1.2-0.3-2.7,0.9-3.3c1.2-0.7,2.7-0.3,3.3,0.9l2.6,4.6c1.7-3.2,3.4-6.5,4.9-9.9l-4.7-6.7c-0.8-1.1-0.5-2.6,0.6-3.4
	c1.1-0.8,2.6-0.5,3.4,0.6l3,4.3c1.4-3.4,2.7-6.8,3.9-10.3l-5.3-6.2c-0.9-1-0.8-2.5,0.2-3.4c1-0.9,2.5-0.8,3.4,0.2l3.4,3.9
	c1.1-3.5,2-7.1,2.9-10.6l-5.9-5.6c-1-0.9-1-2.5-0.1-3.4c0.9-1,2.5-1,3.4-0.1l3.8,3.6c0.7-3.6,1.3-7.2,1.8-10.9l-6.4-5
	c-1.1-0.8-1.2-2.3-0.4-3.4c0.5-0.6,1.2-0.9,1.9-0.9c0.5,0,1.1,0.2,1.5,0.5l4.1,3.2c0.4-3.7,0.6-7.3,0.7-11l-6.8-4.3
	c-1.1-0.7-1.5-2.2-0.8-3.3c0.7-1.1,2.2-1.5,3.3-0.8l4.4,2.7c0-3.7-0.1-7.3-0.3-11l-7.2-3.6c-1.2-0.6-1.7-2.1-1.1-3.2
	c0.6-1.2,2.1-1.7,3.2-1.1l4.6,2.3c-0.3-3.7-0.8-7.3-1.4-10.9l-7.6-2.9c-1.2-0.5-1.9-1.9-1.4-3.1c0.5-1.3,1.9-1.9,3.1-1.4l4.8,1.9
	c-0.7-3.6-1.5-7.2-2.5-10.7L42,86.3c-1.3-0.4-2.1-1.7-1.7-3c0.3-1.1,1.3-1.8,2.3-1.8c0.2,0,0.4,0,0.6,0.1l5,1.4
	c-1.1-3.5-2.2-7-3.5-10.4l-8-1.4c-1.3-0.2-2.2-1.5-2-2.8s1.5-2.2,2.8-2l5.2,0.9c-1.4-3.4-2.9-6.7-4.5-10l-8.2-0.6
	c-1.3-0.1-2.3-1.3-2.2-2.6c0.1-1.3,1.3-2.3,2.6-2.2l5.3,0.4c-1.7-3.2-3.5-6.4-5.5-9.5l-8.2,0.2c-1.3,0-2.4-1-2.5-2.4
	c0-1.3,1-2.5,2.4-2.5l5.3-0.1c-2-3-4.2-6-6.4-9l-8.1,1c-1.3,0.2-2.5-0.8-2.7-2.1c-0.2-1.3,0.8-2.6,2.1-2.7l5.2-0.7
	c-1.6-1.9-3.2-3.8-4.9-5.7c1.5-1.6,3-3.2,4.5-4.7c2.2,2.5,4.4,5,6.4,7.5l3.6-4c0.9-1,2.4-1.1,3.4-0.2c0.5,0.5,0.8,1.1,0.8,1.8
	c0,0.6-0.2,1.1-0.6,1.6l-4.2,4.7c2.5,3.3,4.9,6.7,7.1,10.1l4-3.7c1-0.9,2.5-0.8,3.4,0.1c0.4,0.5,0.6,1.1,0.6,1.6
	c0,0.7-0.3,1.3-0.8,1.8l-4.6,4.2c2.2,3.5,4.2,7.1,6.1,10.8l4.3-3.2c1.1-0.8,2.6-0.6,3.4,0.5c0.3,0.4,0.5,0.9,0.5,1.4
	c0,0.7-0.3,1.5-1,2l-5,3.8c1.8,3.7,3.5,7.5,5,11.3l4.7-2.8c1.1-0.7,2.6-0.3,3.3,0.8c0.2,0.4,0.4,0.8,0.4,1.2c0,0.8-0.4,1.6-1.2,2.1
	L51.2,71c1.4,3.9,2.7,7.8,3.8,11.8l4.9-2.4c1.2-0.6,2.7-0.1,3.2,1.1c0.2,0.3,0.2,0.7,0.2,1c0,0.9-0.5,1.8-1.4,2.2l-5.7,2.7
	c1,4,1.9,8,2.7,12.1l5.2-1.9c1.3-0.5,2.6,0.2,3.1,1.5c0.1,0.3,0.1,0.5,0.1,0.8c0,1-0.6,1.9-1.6,2.3l-6,2.2c0.6,4.1,1.1,8.2,1.5,12.3
	l5.3-1.4c1.3-0.3,2.6,0.5,2.9,1.8c0,0.2,0.1,0.4,0.1,0.6c0,1.1-0.7,2.1-1.8,2.3l-6.2,1.6c0.2,4.1,0.3,8.2,0.3,12.4l5.5-0.8
	c1.3-0.2,2.6,0.7,2.8,2c0,0.1,0,0.2,0,0.4c0,1.2-0.9,2.2-2.1,2.4L61.8,138.9z"/>
<path fill="#E51B33" d="M193.3,138.9c0.2,4.1,0.5,8.2,0.9,12.3l-5.5-0.3c-1.3-0.1-2.5,1-2.6,2.3v0.1c0,1.3,1,2.4,2.3,2.4l6.4,0.3
	c0.6,4.1,1.3,8.1,2.1,12.2l-5.5,0.3c-1.3,0-2.4,1.2-2.3,2.5c0.1,1.3,1.1,2.3,2.4,2.3h0.1l6.4-0.3c1,4,2.1,8,3.3,11.9l-5.4,0.8
	c-1.3,0.2-2.2,1.4-2,2.7c0.2,1.2,1.2,2.1,2.4,2.1c0.1,0,0.2,0,0.4,0l6.3-0.9c1.3,3.9,2.8,7.7,4.5,11.5l-5.3,1.3
	c-1.3,0.3-2.1,1.6-1.8,2.9c0.3,1.1,1.3,1.8,2.3,1.8c0.2,0,0.4,0,0.6-0.1l6.1-1.5c1.7,3.7,3.6,7.4,5.6,11l-5.1,1.8
	c-1.3,0.5-1.9,1.8-1.5,3.1c0.4,1,1.3,1.6,2.3,1.6c0.3,0,0.5,0,0.8-0.1l5.9-2.1c2.1,3.5,4.3,7,6.6,10.4l-4.9,2.3
	c-1.2,0.6-1.7,2-1.2,3.2c0.4,0.9,1.3,1.4,2.2,1.4c0.4,0,0.7-0.1,1-0.2l5.7-2.7c1.3,1.8,2.7,3.6,4.1,5.4c1.6-1.4,3.2-2.9,4.8-4.4
	c-1.4-1.8-2.8-3.6-4.1-5.4l3.3-7.5c0.5-1.2,0-2.7-1.2-3.2c-1.2-0.5-2.6,0-3.2,1.2l-2.1,4.8c-2.1-3.1-4-6.2-5.8-9.3l4.1-7.1
	c0.7-1.2,0.3-2.7-0.9-3.3c-1.2-0.7-2.7-0.3-3.3,0.9l-2.6,4.6c-1.7-3.2-3.4-6.5-4.9-9.9l4.7-6.7c0.8-1.1,0.5-2.6-0.6-3.4
	c-1.1-0.8-2.6-0.5-3.4,0.6l-3,4.3c-1.4-3.4-2.7-6.8-3.9-10.3l5.3-6.2c0.9-1,0.8-2.5-0.2-3.4c-1-0.9-2.5-0.8-3.4,0.2l-3.4,3.9
	c-1.1-3.5-2-7.1-2.9-10.6l5.9-5.6c1-0.9,1-2.5,0.1-3.4c-0.9-1-2.5-1-3.4-0.1l-3.8,3.6c-0.7-3.6-1.3-7.2-1.8-10.9l6.4-5
	c1.1-0.8,1.2-2.3,0.4-3.4c-0.5-0.6-1.2-0.9-1.9-0.9c-0.5,0-1.1,0.2-1.5,0.5l-4.1,3.2c-0.4-3.7-0.6-7.3-0.7-11l6.8-4.3
	c1.1-0.7,1.5-2.2,0.8-3.3c-0.7-1.1-2.2-1.5-3.3-0.8l-4.4,2.7c0-3.7,0.1-7.3,0.3-11l7.2-3.6c1.2-0.6,1.7-2.1,1.1-3.2
	s-2.1-1.7-3.2-1.1l-4.6,2.3c0.3-3.7,0.8-7.3,1.4-10.9l7.6-2.9c1.2-0.5,1.9-1.9,1.4-3.1c-0.5-1.3-1.9-1.9-3.1-1.4l-4.8,1.9
	c0.7-3.6,1.5-7.2,2.5-10.7l7.8-2.1c1.3-0.4,2.1-1.7,1.7-3c-0.3-1.1-1.3-1.8-2.3-1.8c-0.2,0-0.4,0-0.6,0.1l-5,1.4
	c1.1-3.5,2.2-7,3.5-10.4l8-1.4c1.3-0.2,2.2-1.5,2-2.8c-0.2-1.3-1.5-2.2-2.8-2l-5.2,0.9c1.4-3.4,2.9-6.7,4.5-10l8.2-0.6
	c1.3-0.1,2.3-1.3,2.2-2.6c-0.1-1.3-1.3-2.3-2.6-2.2l-5.3,0.4c1.7-3.2,3.5-6.4,5.5-9.5l8.2,0.2c1.3,0,2.4-1,2.5-2.4
	c0-1.3-1-2.5-2.4-2.5l-5.3-0.1c2-3,4.2-6,6.4-9l8.1,1c1.3,0.2,2.5-0.8,2.7-2.1c0.2-1.3-0.8-2.6-2.1-2.7l-5.2-0.7
	c1.6-1.9,3.2-3.8,4.9-5.7c-1.5-1.6-3-3.2-4.5-4.7c-2.2,2.5-4.4,5-6.4,7.5l-3.6-4c-0.9-1-2.4-1.1-3.4-0.2c-0.5,0.5-0.8,1.1-0.8,1.8
	c0,0.6,0.2,1.1,0.6,1.6l4.2,4.7c-2.5,3.3-4.9,6.7-7.1,10.1l-4-3.7c-1-0.9-2.5-0.8-3.4,0.1c-0.4,0.5-0.6,1.1-0.6,1.6
	c0,0.7,0.3,1.3,0.8,1.8l4.6,4.2c-2.2,3.5-4.2,7.1-6.1,10.8l-4.3-3.2c-1.1-0.8-2.6-0.6-3.4,0.5c-0.3,0.4-0.5,0.9-0.5,1.4
	c0,0.7,0.3,1.5,1,2l5,3.8c-1.8,3.7-3.5,7.5-5,11.3l-4.7-2.8c-1.1-0.7-2.6-0.3-3.3,0.8c-0.2,0.4-0.4,0.8-0.4,1.2
	c0,0.8,0.4,1.6,1.2,2.1l5.4,3.3c-1.4,3.9-2.7,7.8-3.8,11.8l-4.9-2.4c-1.2-0.6-2.7-0.1-3.2,1.1c-0.2,0.3-0.2,0.7-0.2,1
	c0,0.9,0.5,1.8,1.4,2.2l5.7,2.7c-1,4-1.9,8-2.7,12.1l-5.2-1.9c-1.3-0.5-2.6,0.2-3.1,1.5c-0.1,0.3-0.1,0.5-0.1,0.8
	c0,1,0.6,1.9,1.6,2.3l6,2.2c-0.6,4.1-1.1,8.2-1.5,12.3l-5.3-1.4c-1.3-0.3-2.6,0.5-2.9,1.8c0,0.2-0.1,0.4-0.1,0.6
	c0,1.1,0.7,2.1,1.8,2.3l6.2,1.6c-0.2,4.1-0.3,8.2-0.3,12.4l-5.5-0.8c-1.3-0.2-2.6,0.7-2.8,2c0,0.1,0,0.2,0,0.4
	c0,1.2,0.9,2.2,2.1,2.4L193.3,138.9z"/>
</svg>
